<svg width="228" height="46" viewBox="0 0 228 46" fill="none" xmlns="http://www.w3.org/2000/svg">
<g clip-path="url(#clip0_0_164)">
<path d="M1.22453e-05 28.5192V11.503C-0.00440066 11.3591 0.0209009 11.2159 0.0743228 11.082C0.127745 10.9481 0.208179 10.8265 0.310707 10.7245C0.410921 10.6243 0.530672 10.5452 0.662689 10.4923C0.794707 10.4393 0.936226 10.4136 1.07861 10.4166H5.02948C5.17377 10.4124 5.31742 10.4375 5.45152 10.4904C5.58562 10.5434 5.70733 10.6231 5.80912 10.7245C5.90871 10.8281 5.98644 10.9502 6.03777 11.0839C6.08911 11.2176 6.11298 11.36 6.10804 11.503V17.7657H13.834V11.503C13.8291 11.359 13.8541 11.2156 13.9074 11.0816C13.9608 10.9476 14.0413 10.8259 14.1441 10.724C14.2469 10.6221 14.3697 10.5423 14.5049 10.4894C14.6401 10.4365 14.7849 10.4118 14.9301 10.4166H18.8634C19.0069 10.4118 19.1499 10.4366 19.2831 10.4897C19.4163 10.5427 19.5369 10.6227 19.6372 10.7245C19.7376 10.8278 19.8162 10.9498 19.8685 11.0834C19.9209 11.2171 19.9458 11.3597 19.942 11.503V28.5192C19.9479 28.6608 19.9239 28.8021 19.8717 28.9341C19.8195 29.0661 19.7401 29.1859 19.6387 29.2859C19.5373 29.3859 19.416 29.4639 19.2825 29.5149C19.149 29.5659 19.0063 29.5889 18.8634 29.5823H14.9301C14.7854 29.5874 14.6411 29.5633 14.506 29.5114C14.371 29.4594 14.248 29.3808 14.1446 29.2802C14.0435 29.1809 13.9637 29.0622 13.9103 28.9314C13.8569 28.8005 13.8309 28.6603 13.834 28.5192V21.995H6.10804V28.5192C6.11295 28.6614 6.08787 28.803 6.03437 28.9351C5.98088 29.0671 5.90016 29.1867 5.79738 29.286C5.69579 29.3837 5.57552 29.4602 5.44365 29.5111C5.31177 29.562 5.17095 29.5862 5.02948 29.5823H1.07861C0.935192 29.5877 0.792151 29.5643 0.658146 29.5134C0.52414 29.4624 0.401947 29.3851 0.298972 29.286C0.19917 29.185 0.12118 29.065 0.069779 28.9331C0.0183782 28.8013 -0.00535979 28.6604 1.22453e-05 28.5192Z" fill="black"/>
<path d="M28.0372 31.4007L30.3467 31.7028C32.0076 31.7028 33.1663 30.4963 33.8228 28.0834C31.9839 28.1416 30.1924 27.4992 28.8168 26.2883C27.4764 25.0915 26.3236 22.9613 25.3583 19.8978L22.7205 11.4681C22.6835 11.3636 22.6656 11.2535 22.6677 11.1428C22.6904 10.9752 22.7688 10.8198 22.8905 10.7012C22.9725 10.6079 23.0746 10.5339 23.1892 10.4846C23.3038 10.4354 23.428 10.4121 23.5529 10.4166H27.24C27.5952 10.4224 27.9388 10.5428 28.2189 10.7594C28.5039 10.9697 28.7101 11.2681 28.8051 11.6075L31.1146 19.0205C31.4678 20.3753 32.0634 21.6563 32.8732 22.8025C33.122 23.124 33.4412 23.3851 33.8068 23.5663C34.1724 23.7474 34.5747 23.8439 34.9834 23.8482L38.5005 11.6075C38.5923 11.2741 38.787 10.9776 39.0574 10.7594C39.3147 10.5387 39.6434 10.4171 39.9836 10.4166H43.7059C43.8296 10.407 43.9538 10.428 44.0674 10.4776C44.181 10.5273 44.2803 10.6041 44.3565 10.7012C44.4763 10.8274 44.5523 10.9882 44.5734 11.1602C44.5756 11.2639 44.5638 11.3675 44.5382 11.4681L39.9133 27.7987C39.0887 30.6919 38.0687 32.7562 36.8534 33.9917C36.2435 34.6052 35.5119 35.0866 34.7047 35.4056C33.8975 35.7246 33.0324 35.8742 32.1639 35.845C30.8064 35.8781 29.4484 35.8082 28.1016 35.6358C27.5664 35.5956 27.0511 35.4174 26.6069 35.1188C26.5118 35.0264 26.4364 34.9161 26.385 34.7944C26.3337 34.6726 26.3075 34.5419 26.3079 34.41V32.487C26.303 32.3441 26.3269 32.2016 26.3782 32.068C26.4296 31.9343 26.5073 31.8121 26.6069 31.7086C26.7085 31.6069 26.8301 31.527 26.9643 31.474C27.0984 31.421 27.2422 31.396 27.3865 31.4007H28.0372Z" fill="black"/>
<path d="M47.1116 34.4214V11.5028C47.1072 11.3589 47.1325 11.2156 47.1859 11.0818C47.2393 10.9479 47.3197 10.8263 47.4223 10.7243C47.5221 10.6235 47.6417 10.5441 47.7739 10.4911C47.906 10.4381 48.0477 10.4127 48.1902 10.4164H51.5959C51.7395 10.4139 51.882 10.4405 52.0148 10.4945C52.1477 10.5485 52.268 10.6289 52.3684 10.7306C52.4688 10.8323 52.5472 10.9532 52.5989 11.086C52.6505 11.2188 52.6742 11.3606 52.6686 11.5028V12.0256C54.5563 10.7163 56.8129 10.0311 59.1167 10.0678C60.2684 10.0414 61.4126 10.2577 62.4737 10.7024C63.5347 11.147 64.4884 11.81 65.2716 12.6473C66.9207 14.3669 67.7453 16.8262 67.7453 20.0254C67.7453 23.2245 66.8914 25.6761 65.1837 27.3803C63.4759 29.0805 61.1761 29.9326 58.2843 29.9365C56.5487 29.8927 54.8297 29.5911 53.1844 29.0418V34.4214C53.1896 34.5649 53.1653 34.7079 53.1129 34.8418C53.0605 34.9756 52.9811 35.0975 52.8797 35.1999C52.7794 35.3002 52.6597 35.3792 52.5276 35.4322C52.3956 35.4851 52.2541 35.5108 52.1118 35.5078H48.1609C48.0184 35.5115 47.8767 35.4861 47.7446 35.4331C47.6124 35.3801 47.4928 35.3008 47.393 35.1999C47.2957 35.0956 47.2206 34.9728 47.1723 34.8391C47.124 34.7053 47.1033 34.5633 47.1116 34.4214ZM53.202 25.0042C54.4369 25.43 55.729 25.6709 57.0357 25.7188C58.6496 25.7188 59.7927 25.2637 60.4649 24.3535C61.137 23.4433 61.4751 21.9929 61.479 20.0021C61.479 18.0095 61.1624 16.5571 60.5176 15.6566C60.1937 15.207 59.7593 14.8467 59.2557 14.6098C58.7521 14.3729 58.1958 14.2673 57.6395 14.303C56.3674 14.303 54.8844 14.8259 53.202 15.8774V25.0042Z" fill="black"/>
<path d="M111.428 28.5192V11.503C111.422 11.3595 111.447 11.2165 111.499 11.0827C111.552 10.9488 111.631 10.827 111.733 10.7245C111.833 10.6243 111.952 10.5452 112.084 10.4923C112.217 10.4393 112.358 10.4136 112.5 10.4166H116.187C116.333 10.4118 116.478 10.4365 116.613 10.4894C116.748 10.5423 116.871 10.6221 116.974 10.724C117.076 10.8259 117.157 10.9476 117.21 11.0816C117.264 11.2156 117.289 11.359 117.284 11.503V22.9943L123.491 11.6773C123.694 11.3055 123.994 10.9945 124.359 10.7768C124.694 10.5533 125.086 10.4284 125.49 10.4166H130.426C130.571 10.4118 130.716 10.4365 130.851 10.4894C130.986 10.5423 131.109 10.6221 131.212 10.724C131.315 10.8259 131.395 10.9476 131.449 11.0816C131.502 11.2156 131.527 11.359 131.522 11.503V28.5192C131.527 28.6614 131.502 28.803 131.448 28.9351C131.395 29.0671 131.314 29.1867 131.211 29.286C131.107 29.3853 130.984 29.4627 130.849 29.5136C130.714 29.5645 130.57 29.5879 130.426 29.5823H126.739C126.596 29.5879 126.453 29.564 126.32 29.512C126.187 29.4599 126.066 29.381 125.965 29.2802C125.867 29.1796 125.789 29.0603 125.738 28.9296C125.687 28.7989 125.662 28.6594 125.666 28.5192V17.0453L119.441 28.3275C119.232 28.6879 118.936 28.9913 118.579 29.2105C118.246 29.4405 117.853 29.5697 117.448 29.5823H112.489C112.346 29.5889 112.204 29.566 112.07 29.5149C111.937 29.4638 111.816 29.3857 111.715 29.2857C111.614 29.1856 111.536 29.0657 111.484 28.9337C111.432 28.8017 111.409 28.6606 111.416 28.5192H111.428Z" fill="black"/>
<path d="M135.854 28.5191V11.5029C135.85 11.359 135.875 11.2157 135.928 11.0819C135.982 10.948 136.062 10.8264 136.165 10.7244C136.265 10.6241 136.385 10.5451 136.517 10.4922C136.649 10.4392 136.79 10.4135 136.933 10.4165H140.883C141.028 10.4112 141.172 10.4358 141.306 10.4888C141.44 10.5418 141.562 10.6221 141.663 10.7244C141.763 10.8279 141.84 10.9501 141.892 11.0838C141.943 11.2175 141.967 11.3599 141.962 11.5029V17.7656H149.688V11.5029C149.683 11.3589 149.708 11.2154 149.761 11.0814C149.815 10.9474 149.895 10.8257 149.998 10.7239C150.101 10.622 150.224 10.5422 150.359 10.4893C150.494 10.4364 150.639 10.4116 150.784 10.4165H154.717C154.862 10.4122 155.005 10.4373 155.139 10.4903C155.274 10.5433 155.395 10.623 155.497 10.7244C155.597 10.8279 155.674 10.9501 155.726 11.0838C155.777 11.2175 155.801 11.3599 155.796 11.5029V28.5191C155.801 28.6603 155.778 28.8011 155.726 28.933C155.675 29.0648 155.597 29.1849 155.497 29.2859C155.394 29.3844 155.271 29.4614 155.137 29.5123C155.004 29.5632 154.861 29.5869 154.717 29.5822H150.784C150.639 29.5873 150.495 29.5632 150.36 29.5113C150.225 29.4593 150.102 29.3807 149.999 29.2801C149.897 29.1808 149.818 29.0621 149.764 28.9312C149.711 28.8004 149.685 28.6602 149.688 28.5191V21.9949H141.95V28.5191C141.955 28.6613 141.93 28.8029 141.877 28.9349C141.823 29.067 141.742 29.1865 141.64 29.2859C141.538 29.3841 141.418 29.461 141.286 29.5119C141.154 29.5628 141.013 29.5867 140.872 29.5822H136.921C136.778 29.5875 136.636 29.564 136.503 29.513C136.37 29.4621 136.249 29.3848 136.147 29.2859C136.048 29.185 135.97 29.0648 135.92 28.9329C135.869 28.8009 135.847 28.66 135.854 28.5191Z" fill="black"/>
<path d="M161.365 28.3273C160.614 27.8311 160.004 27.1523 159.594 26.3559C159.183 25.5595 158.986 24.6721 159.02 23.7784C158.983 22.8892 159.18 22.0058 159.591 21.2146C160.002 20.4233 160.613 19.7513 161.365 19.2644C163.168 18.1523 165.269 17.6056 167.391 17.6958H173.253C173.253 16.3286 172.963 15.3778 172.385 14.8433C171.799 14.3088 170.802 14.0358 169.36 14.0358C167.918 14.0358 166.91 14.3902 166.324 15.0989C166.074 15.4277 165.751 15.6944 165.38 15.8779C165.009 16.0614 164.599 16.1567 164.184 16.1563H161.552C161.407 16.1606 161.263 16.1356 161.128 16.0827C160.992 16.0297 160.87 15.95 160.767 15.8484C160.666 15.7491 160.586 15.6303 160.532 15.4995C160.479 15.3687 160.453 15.2284 160.456 15.0873C160.456 11.741 163.663 10.0679 170.075 10.0679C172.877 10.0679 175.124 10.6895 176.817 11.9327C178.509 13.176 179.355 15.097 179.355 17.6958V28.519C179.361 28.6604 179.338 28.8016 179.287 28.9336C179.235 29.0655 179.156 29.1854 179.055 29.2855C178.954 29.3856 178.833 29.4636 178.7 29.5147C178.567 29.5658 178.425 29.5888 178.282 29.5821H174.876C174.732 29.5886 174.588 29.565 174.454 29.513C174.32 29.4609 174.198 29.3816 174.097 29.2801C173.998 29.1794 173.921 29.0601 173.87 28.9294C173.818 28.7987 173.794 28.6592 173.798 28.519V27.9729C171.918 29.3 169.657 29.9907 167.35 29.9423C165.235 30.0233 163.146 29.4596 161.365 28.3273ZM165.867 22.2563C165.639 22.4461 165.455 22.683 165.329 22.9505C165.204 23.2179 165.139 23.5094 165.139 23.8045C165.139 24.0996 165.204 24.3912 165.329 24.6586C165.455 24.9261 165.639 25.163 165.867 25.3528C166.472 25.7949 167.215 26.011 167.965 25.9628C169.828 25.9486 171.648 25.4019 173.206 24.3884V21.6405H167.789C167.095 21.6134 166.414 21.8316 165.867 22.2563Z" fill="black"/>
<path d="M183.681 28.5191V11.5029C183.676 11.3594 183.7 11.2164 183.752 11.0825C183.805 10.9487 183.884 10.8269 183.986 10.7244C184.086 10.6241 184.205 10.5451 184.338 10.4922C184.47 10.4392 184.611 10.4135 184.753 10.4165H188.71C188.854 10.4116 188.997 10.4365 189.13 10.4895C189.263 10.5425 189.384 10.6225 189.484 10.7244C189.584 10.8279 189.661 10.9501 189.713 11.0838C189.764 11.2175 189.788 11.3599 189.783 11.5029V17.7656H197.515V11.5029C197.509 11.3592 197.533 11.2159 197.586 11.0819C197.639 10.9479 197.719 10.8261 197.821 10.7242C197.923 10.6222 198.046 10.5423 198.181 10.4893C198.316 10.4364 198.46 10.4116 198.605 10.4165H202.538C202.683 10.4112 202.827 10.4358 202.961 10.4888C203.095 10.5418 203.217 10.6221 203.318 10.7244C203.417 10.8279 203.495 10.9501 203.547 11.0838C203.598 11.2175 203.622 11.3599 203.617 11.5029V28.5191C203.624 28.6609 203.6 28.8026 203.548 28.9351C203.496 29.0675 203.417 29.1876 203.316 29.2878C203.214 29.3879 203.092 29.4659 202.958 29.5166C202.825 29.5673 202.681 29.5896 202.538 29.5822H198.605C198.46 29.5873 198.316 29.5632 198.181 29.5113C198.046 29.4593 197.923 29.3807 197.819 29.2801C197.719 29.1805 197.64 29.0616 197.588 28.9307C197.535 28.7999 197.511 28.6598 197.515 28.5191V21.9949H189.783V28.5191C189.789 28.6614 189.764 28.8034 189.711 28.9356C189.657 29.0678 189.576 29.1872 189.472 29.2859C189.372 29.3834 189.252 29.4598 189.122 29.5107C188.991 29.5616 188.851 29.5859 188.71 29.5822H184.753C184.611 29.5888 184.468 29.5658 184.335 29.5148C184.202 29.4637 184.081 29.3856 183.98 29.2855C183.879 29.1854 183.8 29.0656 183.749 28.9336C183.697 28.8016 183.674 28.6604 183.681 28.5191Z" fill="black"/>
<path d="M217.334 29.9365C214.031 29.9365 211.464 29.0961 209.631 27.4152C207.798 25.7343 206.882 23.2652 206.882 20.008C206.882 16.7508 207.792 14.2798 209.614 12.595C211.435 10.9102 213.975 10.0679 217.234 10.0679C220.485 10.0679 222.986 10.581 224.737 11.6074C225.556 12.0502 226.234 12.7103 226.696 13.5138C227.158 14.3172 227.385 15.2322 227.351 16.1563C227.357 16.2981 227.333 16.4395 227.28 16.5715C227.228 16.7035 227.148 16.8233 227.047 16.9231C226.942 17.0218 226.819 17.0989 226.684 17.1497C226.549 17.2006 226.405 17.2243 226.261 17.2194H223.629C223.208 17.2021 222.799 17.0755 222.443 16.8522C222.087 16.6289 221.797 16.3168 221.601 15.9471C220.909 14.8472 219.684 14.2991 217.926 14.303C216.167 14.303 214.936 14.7445 214.239 15.6392C213.541 16.5339 213.183 17.963 213.183 20.0022C213.183 22.0413 213.547 23.4879 214.274 24.371C215.001 25.254 216.255 25.7188 218.049 25.7188C219.842 25.7188 221.085 25.1727 221.777 24.0747C221.971 23.7083 222.258 23.3984 222.609 23.1753C222.961 22.9522 223.365 22.8237 223.782 22.8024H226.414C226.559 22.798 226.703 22.8231 226.838 22.876C226.973 22.9289 227.096 23.0087 227.199 23.1103C227.3 23.2096 227.38 23.3283 227.433 23.4592C227.487 23.59 227.513 23.7303 227.51 23.8714C227.543 24.7961 227.316 25.7118 226.853 26.5154C226.39 27.319 225.71 27.9787 224.89 28.4202C223.143 29.4272 220.624 29.9327 217.334 29.9365Z" fill="black"/>
<path d="M82.3647 23.7145V6.02441C82.3647 6.02441 76.8839 7.86025 76.5498 8.00549C75.2937 8.54929 74.2237 9.44239 73.4694 10.5766C72.7151 11.7109 72.3089 13.0376 72.2999 14.396V28.6991C72.3106 30.0564 72.7168 31.3816 73.4698 32.5154C74.2227 33.6492 75.2903 34.5431 76.5439 35.0896C76.878 35.2348 82.3647 37.0706 82.3647 37.0706V30.1573H79.7034L82.3647 23.7145Z" fill="#60AAFB"/>
<path d="M94.5632 12.0839V0C94.5632 0 89.0765 1.84161 88.7482 1.98104C87.4931 2.52604 86.4239 3.41949 85.6698 4.55346C84.9157 5.68743 84.5088 7.01346 84.4984 8.37154V23.7959L87.1186 30.1864H84.4984C84.4984 38.4999 84.4984 46.0232 84.4984 46.0232C84.4984 46.0232 89.9851 44.1816 90.3192 44.0364C91.5739 43.4908 92.6427 42.5972 93.3967 41.4634C94.1507 40.3295 94.5578 39.0038 94.569 37.6459V18.6196H91.8902L94.5632 12.0839Z" fill="#355DFB"/>
<path d="M106.674 14.4018C106.665 13.0434 106.259 11.7167 105.504 10.5825C104.75 9.44825 103.68 8.55511 102.424 8.01131C102.09 7.86608 96.609 6.03027 96.609 6.03027V12.1361L99.282 18.6254H96.609V37.0881C96.609 37.0881 102.096 35.2523 102.43 35.1071C103.683 34.5606 104.751 33.6667 105.504 32.5329C106.257 31.3991 106.663 30.0738 106.674 28.7166V14.4018Z" fill="#0000DE"/>
</g>
<defs>
<clipPath id="clip0_0_164">
<rect width="227.504" height="46" fill="white"/>
</clipPath>
</defs>
</svg>
