<svg width="16" height="16" viewBox="0 0 16 16" fill="none" xmlns="http://www.w3.org/2000/svg">
<path d="M2.33689 2.97288L5.99971 13.5543C6.0342 13.654 6.09931 13.7402 6.18573 13.8006C6.27215 13.861 6.37546 13.8925 6.48088 13.8907C6.58631 13.8889 6.68846 13.8538 6.77273 13.7904C6.857 13.727 6.91908 13.6386 6.95009 13.5378L8.42231 8.7531C8.4463 8.67516 8.48898 8.60426 8.54665 8.54659C8.60432 8.48893 8.67521 8.44624 8.75316 8.42226L13.5379 6.95003C13.6387 6.91902 13.7271 6.85695 13.7904 6.77268C13.8538 6.6884 13.8889 6.58626 13.8908 6.48083C13.8926 6.3754 13.8611 6.27209 13.8006 6.18567C13.7402 6.09925 13.654 6.03414 13.5544 5.99965L2.97294 2.33683C2.88427 2.30614 2.78875 2.30102 2.69731 2.32205C2.60586 2.34308 2.52218 2.38942 2.45583 2.45577C2.38948 2.52212 2.34314 2.6058 2.32211 2.69725C2.30108 2.78869 2.3062 2.88421 2.33689 2.97288V2.97288Z" stroke="#6E9BB8" stroke-linecap="round" stroke-linejoin="round"/>
</svg>
